<svg xmlns="http://www.w3.org/2000/svg" width="342.379" height="553.42" viewBox="0 0 342.379 553.42">
  <g id="newsssss" transform="translate(-35.621 -132.58)">
    <g id="p1">
      <g id="Rectangle_10" data-name="Rectangle 10" transform="translate(36 133)" fill="none" stroke="#b2b2b2" stroke-width="1">
        <rect width="145" height="94" stroke="none"/>
        <rect x="0.5" y="0.5" width="144" height="93" fill="none"/>
      </g>
      <path id="Path_5" data-name="Path 5" d="M1634,142l-144.167,93.415" transform="translate(-1453 -9)" fill="none" stroke="#b2b2b2" stroke-width="1"/>
      <path id="Path_6" data-name="Path 6" d="M1489,142l144.259,92.927" transform="translate(-1453 -9)" fill="none" stroke="#b2b2b2" stroke-width="1"/>
    </g>
    <g id="p3">
      <g id="Rectangle_17" data-name="Rectangle 17" transform="translate(36 289)" fill="none" stroke="#b2b2b2" stroke-width="1">
        <rect width="145" height="169" stroke="none"/>
        <rect x="0.5" y="0.5" width="144" height="168" fill="none"/>
      </g>
      <path id="Path_11" data-name="Path 11" d="M1634,142,1489.833,311" transform="translate(-1453 147)" fill="none" stroke="#b2b2b2" stroke-width="1"/>
      <path id="Path_12" data-name="Path 12" d="M1489,142l144.259,168" transform="translate(-1453 147)" fill="none" stroke="#b2b2b2" stroke-width="1"/>
    </g>
    <g id="p4">
      <g id="Rectangle_15" data-name="Rectangle 15" transform="translate(212 481)" fill="none" stroke="#b2b2b2" stroke-width="1">
        <rect width="165" height="107" stroke="none"/>
        <rect x="0.5" y="0.5" width="164" height="106" fill="none"/>
      </g>
      <path id="Path_9" data-name="Path 9" d="M1653.885,142,1489.833,248.3" transform="translate(-1276.885 339)" fill="none" stroke="#b2b2b2" stroke-width="1"/>
      <path id="Path_10" data-name="Path 10" d="M1489,142l164.156,105.744" transform="translate(-1277 339)" fill="none" stroke="#b2b2b2" stroke-width="1"/>
    </g>
    <g id="p5">
      <g id="Rectangle_18" data-name="Rectangle 18" transform="translate(36 525)" fill="none" stroke="#b2b2b2" stroke-width="1">
        <rect width="145" height="125" stroke="none"/>
        <rect x="0.5" y="0.5" width="144" height="124" fill="none"/>
      </g>
      <path id="Path_13" data-name="Path 13" d="M1634,142,1489.833,266" transform="translate(-1453 383)" fill="none" stroke="#b2b2b2" stroke-width="1"/>
      <path id="Path_14" data-name="Path 14" d="M1489,142l145,125" transform="translate(-1453 383)" fill="none" stroke="#b2b2b2" stroke-width="1"/>
    </g>
    <g id="Rectangle_11" data-name="Rectangle 11" transform="translate(36 226)" fill="#2a406f" stroke="#969696" stroke-width="1">
      <rect width="145" height="37" stroke="none"/>
      <rect x="0.5" y="0.5" width="144" height="36" fill="none"/>
    </g>
    <g id="Rectangle_16" data-name="Rectangle 16" transform="translate(36 457)" fill="#2a406f" stroke="#969696" stroke-width="1">
      <rect width="145" height="37" stroke="none"/>
      <rect x="0.5" y="0.5" width="144" height="36" fill="none"/>
    </g>
    <g id="Rectangle_14" data-name="Rectangle 14" transform="translate(212 587)" fill="#2a406f" stroke="#969696" stroke-width="1">
      <rect width="165" height="42" stroke="none"/>
      <rect x="0.5" y="0.5" width="164" height="41" fill="none"/>
    </g>
    <g id="Rectangle_19" data-name="Rectangle 19" transform="translate(36 649)" fill="#2a406f" stroke="#969696" stroke-width="1">
      <rect width="145" height="37" stroke="none"/>
      <rect x="0.5" y="0.5" width="144" height="36" fill="none"/>
    </g>
    <g id="Rectangle_13" data-name="Rectangle 13" transform="translate(212 391)" fill="#2a406f" stroke="#969696" stroke-width="1">
      <rect width="166" height="62" stroke="none"/>
      <rect x="0.5" y="0.5" width="165" height="61" fill="none"/>
    </g>
    <text id="Special_Offer" data-name="Special Offer" transform="translate(62 236)" fill="#fff" font-size="15" font-family="SegoeUIBlack, Segoe UI"><tspan x="0" y="16">Special </tspan></text>
    <text id="New_Release" data-name="New Release" transform="translate(64 466)" fill="#fff" font-size="15" font-family="SegoeUIBlack, Segoe UI"><tspan x="0" y="16">New </tspan></text>
    <text id="Beer_and_me_by_" data-name="Beer and me by…" transform="translate(234 599)" fill="#fff" font-size="15" font-family="SegoeUIBlack, Segoe UI"><tspan x="0" y="16">Beer and me </tspan></text>
    <text id="Editor_Speaking" data-name="Editor Speaking" transform="translate(51 658)" fill="#fff" font-size="15" font-family="SegoeUIBlack, Segoe UI"><tspan x="0" y="16">Editor </tspan></text>
    <text id="Music_Interview:_Brief_Talk_about_" data-name="Music Interview: Brief Talk about…" transform="translate(234 402)" fill="#fff" font-size="15" font-family="SegoeUIBlack, Segoe UI"><tspan x="0" y="16">Music Interview: </tspan><tspan x="0" y="36">Brief Talk </tspan></text>
    <g id="p2">
      <g id="Rectangle_12" data-name="Rectangle 12" transform="translate(212 133)" fill="none" stroke="#9b9b9b" stroke-width="1">
        <rect width="166" height="259" stroke="none"/>
        <rect x="0.5" y="0.5" width="165" height="258" fill="none"/>
      </g>
      <path id="Path_7" data-name="Path 7" d="M1830.5,142,1666.068,399.364" transform="translate(-1453 -9)" fill="none" stroke="#9b9b9b" stroke-width="1"/>
      <path id="Path_8" data-name="Path 8" d="M1665,142l165.121,258.847" transform="translate(-1453 -9)" fill="none" stroke="#9b9b9b" stroke-width="1"/>
    </g>
  </g>
</svg>
